<?xml version="1.0" encoding="UTF-8"?>
<svg id="Ebene_2" data-name="Ebene 2" xmlns="http://www.w3.org/2000/svg" viewBox="0 0 1029.43 1080">
  <defs>
    <style>
      .cls-1 {
        fill: #0f7216;
      }
    </style>
  </defs>
  <g id="Ebene_1-2" data-name="Ebene 1">
    <path class="cls-1" d="M330.01,976.81c-.49,37.35-37.48,34.52-67.62,80.87-7.9,12.15-19.36,20.3-32.83,21.97-13.45,1.67-29.44-2.59-38.64-14.15-15.21-19.12-12.29-45.66,3.15-63.34l19.26-22.06c-.04-22.56,3.61-42.72,11.19-66.36-22.59-13.83-29.22-42.07-15-65.02,9.77-15.77,21.26-29.41,33.79-44.66l-29.2-28.59c-21.76-1-37.82-11.47-47.25-30.81l-33.15-21.64c-17.55-11.46-30.49-27.91-44.5-43.65-15.4-17.31-18.26-43.28-11.34-65.23,17.27-54.81.19-77.4-27.76-124.39l-17.36-7.11c-16.21-6.64-27.16-16.16-31.15-33.08-10.6-44.92,34.39-49,57.16-65.67,17.57-12.86,32.65-27.11,48.36-42.16,7.84-7.51,10.31-19.05,10.37-29.83.07-11.7,3.99-21.09,7.54-32.05,2.17-6.69,2.81-17.78,6.81-23.68,6.09-9,16.47-14.57,23.41-21.95l31.83-33.85c-29.61-8.67-46.47-36.64-35.31-65.64,6.41-16.65,27.49-14.94,34.03-33.47,9.49-26.88,36.43-41.78,64.58-35.27,10.54,2.44,23.01,8.44,33.07,12.27l48.8-7.21c16.53-34.5,54.14-39.69,91.59-48.67,8.67-6.09,18.42-15.15,28.59-19.11,18.84-7.33,43.44-2.49,52.95,16.08,13.29,25.99-.5,55.52,17.83,65.13,9.15,4.8,21.29,10.62,31.22,10.57,49.66-.26,84.2-5.82,127.85,21.28,27.26,16.93,32.43-33.12,89.72-34.2,16.28-9.91,34.22-8.06,52.06-.04,3.03-21.4,12.31-41.15,33.06-46.14,14.98-3.6,31.8-.78,47.09,1.25,15.01,2.6,27.62,7.44,39.58,16.86,25.63,5.3,48.67,23.14,56.13,49.03l-.27,19.48c31.5,11.31,36.34,56.81,22.34,83.32-11.66,22.09-41.43,15.63-48.43,23.28-10.85,11.87,18.38,73.9-34.7,92.69-24.51,8.67-18.1,40.63-52.36,62.99l-16.31,10.64-44.9,17.6c25.92,68.58-23.89,85.03-75.89,121.29l-207.11,144.39c-16.97,11.83-29.18,28.41-39.57,45.94-6.96,11.75-18.1,24.57-23.2,36.08-9.97,22.51-21.09,36.41-47.27,40.46l-60.96,70.98c-15.62,18.19-30.71,34.47-51.18,47.3-4.83,3.03-12.16,12.03-8.98,16.88,11.69,12.39,19.1,24.25,18.89,40.39ZM283.86,968.88c-10.61-4.47-17.2-11.84-14.2-23.86l16.19-64.97,19.64,1.91c7.36-6.32,17.93-13.33,24.2-20.64l74.46-86.78c5.66-6.59,14.06-10.95,22.06-13.59,13.38.24,18.88-10.29,20.2-21.66l29.03-39.43c12.09-16.41,22.33-36.03,39.92-48.23l265.33-183.85c6.85-4.75,13.84-11.68,18.7-17.47-4.71-37.87-49.41-27.61-59.22-44.12-5.76-9.69.63-23.64,7.22-28.39,28.29-20.4,34.68,3.86,48.15,1.71,14.81-2.36,26-6.65,39.51-11.4,19.5-6.86,41.35-16.32,51.84-35.62,8.32-15.32,13.31-34.68,30.26-42.95l22.1-10.79-2.77-34.89c-1.32-16.64,9.85-32.28,15.83-46.68,3.91-9.4,7.24-12.55,17.52-12.78l24.95-.56c3.86-27.95-21.87-22.35-29.22-31.03-6.89-8.13,3.42-27.06.22-35.73-3.36-9.11-13.46-17.69-21.58-20.13-26.65-8.01-28.94-21.41-74.18-22.82-10.03-.31-14.84,7.61-14.22,16.38,1.33,18.63-8.87,39.15-27.28,44.89-17.31,5.39-34.31,10.81-46.68,23.62l-7.54,7.81c-1.84,1.91-10.82-.73-11.57-3.28-1.58-5.41.72-17.11,3.5-22.3,11.79-7.4,24.09-14.82,32.32-25.7l-46.28,10.33c-16.58,3.7-39.42,53.75-85.95,26.15-41.32-24.5-66.01-17.75-111.81-17.9-19.48-.07-39.95-8.92-55.26-20.58-20.62-15.7-13.76-49.16-19.56-68.46-2.84-9.46-18.16-4.73-23.11-.07-8.12,7.64-17.83,15.01-28.22,16.81-19.79,3.43-36.69,7.62-54.69,16.42-14.18,6.93-7.73,27.17-15.62,33.46-11.3,9-45.47-13.34-75.24,16.35-12.73-15.34-30.32-26.36-48.93-23.91-15.42,2.03-16.8,17.23-22.02,28.31-4.95,10.51-18.4,16.45-29.04,22.61,6.76,8.26,17.65,9.33,30.15,11.95,6.68,1.4,24.22,37.37,6.4,56.08l-24.36,25.57c-11.07,11.62-21.2,21.39-34.37,31.77l-.17,20.69c-18.41,14.66.73,44.41-32.06,74.63l-23.62,21.77c-17.51,16.14-37.52,29.31-60.21,37.74-2.21.82-6.83,5.42-8.39,7.72,13.5,5.86,28.92,8.75,37.09,21,15.69,23.54,28.52,47.78,39.13,74.23,9.18,22.89,10.25,50.48,4.25,74.13-3.15,12.44-8.55,25.67-6.11,37.72,13.54,14.25,26.16,27.84,41.03,39.88,11.24,9.1,24.81,14.96,37.06,23.67l13.2,19.66,25.97,3.7,28.98,29.15c12.4,12.47,25.08-6.81,55.84,4.18,47.77,17.07,51.89-36.57,69.54-30.75,8.14,2.68,14.92,20.86,9.11,30.51-2.24,3.72-8.76,7.39-14.3,10.47l-12.1,15.4-79.65,23.3c-18.68,16.36-33.15,34.25-47.47,55.37l12.65,7.34c31.12,18.07,4.2,39.97-1.01,86.27l4.7,22.23-36.52,46.49c4.88,1.96,12.02-1.11,15.5-6.27,13.98-20.71,32.53-38.67,53.94-51.04,1.67-.96,5.9-6.97,4.14-7.71l-7.3-3.08Z"/>
  </g>
</svg>